<svg width="299" height="299" viewBox="0 0 299 299" fill="none" xmlns="http://www.w3.org/2000/svg">
<path d="M149.457 287.914C225.924 287.914 287.914 225.924 287.914 149.457C287.914 72.9893 225.924 11 149.457 11C72.9893 11 11 72.9893 11 149.457C11 225.924 72.9893 287.914 149.457 287.914Z" stroke="black" stroke-width="20.7686" stroke-linecap="round" stroke-linejoin="round"/>
<path d="M181.764 246.377V220.583C182.11 216.297 181.516 211.989 180.02 207.944C178.524 203.9 176.161 200.211 173.088 197.125C202.072 193.979 232.532 183.284 232.532 134.212C232.529 121.663 227.573 109.595 218.687 100.507C222.894 89.5289 222.597 77.3941 217.856 66.6236C217.856 66.6236 206.963 63.478 181.764 79.9255C160.608 74.3425 138.308 74.3425 117.151 79.9255C91.952 63.478 81.06 66.6236 81.06 66.6236C76.3189 77.3941 76.0215 89.5289 80.2292 100.507C71.2769 109.663 66.3146 121.839 66.3835 134.48C66.3835 183.194 96.8441 193.889 125.827 197.394C122.791 200.45 120.449 204.094 118.954 208.09C117.459 212.084 116.845 216.34 117.151 220.583V246.377" stroke="black" stroke-width="20.7686" stroke-linecap="round" stroke-linejoin="round"/>
<path d="M117.15 228.403C89.4591 237.149 66.3828 228.403 52.5371 201.439" stroke="black" stroke-width="20.7686" stroke-linecap="round" stroke-linejoin="round"/>
</svg>
